<?xml version="1.0" encoding="UTF-8"?>
<svg width="25px" height="30px" viewBox="0 0 25 30" version="1.1" xmlns="http://www.w3.org/2000/svg" xmlns:xlink="http://www.w3.org/1999/xlink">
    <!-- Generator: Sketch 55.1 (78136) - https://sketchapp.com -->
    <title>green_transactions</title>
    <desc>Created with Sketch.</desc>
    <g id="Page-1" stroke="none" stroke-width="1" fill="none" fill-rule="evenodd">
        <g id="green_transactions" fill="#0CBEAB" fill-rule="nonzero">
            <path d="M11.25,7.4696015 L8.088,7.4696015 C7.7566292,7.4696015 7.488,7.2009724 7.488,6.8696015 C7.488,6.5382307 7.7566292,6.2696015 8.088,6.2696015 L11.25,6.2696015 C11.5813708,6.2696015 11.85,6.5382307 11.85,6.8696015 C11.85,7.2009724 11.5813708,7.4696015 11.25,7.4696015 Z M14.652,9.6716015 C14.9833708,9.6716015 15.252,9.9402307 15.252,10.2716015 C15.252,10.6029724 14.9833708,10.8716015 14.652,10.8716015 L4.686,10.8716015 C4.3546292,10.8716015 4.086,10.6029724 4.086,10.2716015 C4.086,9.9402307 4.3546292,9.6716015 4.686,9.6716015 L14.652,9.6716015 Z M14.652,12.6956015 C14.9833708,12.6956015 15.252,12.9642307 15.252,13.2956015 C15.252,13.6269724 14.9833708,13.8956015 14.652,13.8956015 L4.686,13.8956015 C4.3546292,13.8956015 4.086,13.6269724 4.086,13.2956015 C4.086,12.9642307 4.3546292,12.6956015 4.686,12.6956015 L14.652,12.6956015 Z M10.764,27.0536015 C11.0953708,27.0536015 11.364,27.3222307 11.364,27.6536015 C11.364,27.9849724 11.0953708,28.2536015 10.764,28.2536015 L1.398,28.2536015 C0.6272714,28.2503148 0.0032867,27.6263301 3.55271368e-15,26.8556015 L3.55271368e-15,4.4156015 C0.0032867,3.644873 0.6272714,3.0208883 1.398,3.0176015 L2.724,3.0176015 L2.886,1.2776015 C2.9164887,0.90788246 3.0932957,0.56562809 3.3771747,0.32680923 C3.6610538,0.08799036 4.0285177,-0.02763398 4.398,0.00560153 L20.868,1.4456015 C21.238229,1.4776012 21.5804834,1.655687 21.8191562,1.9405181 C22.0578289,2.2253493 22.1732781,2.5934853 22.14,2.9636015 L21.3,12.5636015 C21.2701766,12.8949724 20.9773708,13.1394249 20.646,13.1096015 C20.3146292,13.0797782 20.0701766,12.7869724 20.1,12.4556015 L20.94,2.8556015 C20.9449972,2.8030421 20.9287962,2.7506636 20.8949967,2.7101043 C20.8611973,2.6695449 20.8125989,2.6441642 20.76,2.6396015 L4.284,1.1996015 C4.2314406,1.1946043 4.1790621,1.2108054 4.1385027,1.2446048 C4.0979434,1.2784043 4.0725627,1.3270026 4.068,1.3796015 L3.924,3.0176015 L17.94,3.0176015 C18.7120941,3.0176015 19.338,3.6435074 19.338,4.4156015 L19.338,13.2416015 C19.338,13.5729724 19.0693708,13.8416015 18.738,13.8416015 C18.4066292,13.8416015 18.138,13.5729724 18.138,13.2416015 L18.138,4.4156015 C18.138,4.3062491 18.0493524,4.2176015 17.94,4.2176015 L1.398,4.2176015 C1.2886476,4.2176015 1.2,4.3062491 1.2,4.4156015 L1.2,26.8556015 C1.2,26.9649539 1.2886476,27.0536015 1.398,27.0536015 L10.764,27.0536015 Z M11.1239941,22.7396015 C11.1203588,19.9467825 12.7999102,17.4269374 15.3790941,16.3556478 C17.9582781,15.2843583 20.9288564,15.8727261 22.9049671,17.8462604 C24.8810779,19.8197947 25.4733207,22.7896029 24.4053969,25.3701823 C23.3374732,27.9507617 20.8198214,29.6336015 18.027,29.6336015 C14.2201395,29.6286576 11.1339105,26.5464523 11.1239941,22.7396015 Z M18.513,26.7356015 L18.612,27.0146015 C18.7408352,27.3709542 19.0790729,27.6084403 19.458,27.6086015 C19.5623593,27.6084788 19.6659022,27.5902065 19.764,27.5546015 C20.2310879,27.3854435 20.4727843,26.8698246 20.304,26.4026015 L20.178,26.0426015 C20.5385637,25.8001979 20.8300617,25.4683863 21.024,25.0796015 C21.2853244,24.5132744 21.3144017,23.8671113 21.105,23.2796015 C20.8860295,22.6755188 20.4350783,22.1837748 19.8521691,21.9134401 C19.2692598,21.6431053 18.6025795,21.6165275 18,21.8396015 L17.424,22.0196015 C17.159311,22.0361538 16.9148786,21.8778247 16.8217586,21.6295046 C16.7286385,21.3811844 16.8086931,21.1011728 17.019,20.9396015 L18.153,20.5256015 C18.2556738,20.8367072 18.5192897,21.0674478 18.8412516,21.1280218 C19.1632135,21.1885958 19.4926601,21.0694343 19.7013749,20.8169134 C19.9100897,20.5643925 19.9651013,20.2184037 19.845,19.9136015 C19.6892955,19.4700934 19.3662806,19.1050866 18.945,18.8966015 C18.5125426,18.69372 18.0171763,18.6710561 17.568,18.8336015 L17.424,18.5096015 C17.3213262,18.1984958 17.0577103,17.9677553 16.7357484,17.9071813 C16.4137865,17.8466072 16.0843399,17.9657688 15.8756251,18.2182897 C15.6669103,18.4708106 15.6118987,18.8167994 15.732,19.1216015 L15.867,19.4906015 C14.8739757,20.1740196 14.5439915,21.4891905 15.0967553,22.5604559 C15.6495191,23.6317214 16.9125907,24.1248892 18.045,23.7116015 L18.603,23.5046015 C18.7533689,23.4495341 18.9194664,23.4565397 19.0646642,23.5240736 C19.209862,23.5916074 19.3222341,23.7141226 19.377,23.8646015 C19.4395294,24.0112128 19.4395294,24.1769903 19.377,24.3236015 C19.3141613,24.4680274 19.193212,24.57917 19.044,24.6296015 L17.91,25.0436015 C17.8191113,24.7167673 17.5521661,24.4688063 17.2195263,24.4022318 C16.8868866,24.3356574 16.5450721,24.4617815 16.3353977,24.7284611 C16.1257234,24.9951407 16.0838155,25.3570636 16.227,25.6646015 C16.4865224,26.3706699 17.157752,26.8408896 17.91,26.8436015 C18.121741,26.8444073 18.3319635,26.8078469 18.531,26.7356015 L18.513,26.7356015 Z" id="Shape"></path>
        </g>
    </g>
</svg>