<?xml version="1.0" encoding="UTF-8"?>
<svg width="30px" height="26px" viewBox="0 0 30 26" version="1.1" xmlns="http://www.w3.org/2000/svg" xmlns:xlink="http://www.w3.org/1999/xlink">
    <!-- Generator: Sketch 55.1 (78136) - https://sketchapp.com -->
    <title>green_payment_methods</title>
    <desc>Created with Sketch.</desc>
    <g id="Page-1" stroke="none" stroke-width="1" fill="none" fill-rule="evenodd">
        <g id="green_payment_methods" fill-rule="nonzero">
            <path d="M28.9796667,12.4333333 L28.413,12.4333333 L28.413,8.4666667 C28.413,7.5277826 27.6518841,6.7666667 26.713,6.7666667 L25.438,6.7666667 L24.7806667,4.3073333 C24.5373008,3.4019401 23.6068876,2.8644806 22.701,3.106 L22.0776667,3.276 L21.2333333,1.5023333 C21.0427146,1.0918921 20.6963127,0.7743938 20.2708584,0.6201666 C19.845404,0.4659394 19.3760157,0.4877138 18.9666667,0.6806667 L5.8936667,6.7666667 L5.1796667,6.7666667 C4.2407826,6.7666667 3.4796667,7.5277826 3.4796667,8.4666667 L3.4796667,14.836 C1.1366698,15.9039232 -0.14530988,18.4603956 0.40025885,20.9768314 C0.94582759,23.4932672 3.1714369,25.2892867 5.7463333,25.291 L26.713,25.291 C27.6518841,25.291 28.413,24.5298841 28.413,23.591 L28.413,19.6243333 L28.9796667,19.6243333 C29.292628,19.6243333 29.5463333,19.370628 29.5463333,19.0576667 L29.5463333,13 C29.5463333,12.6870386 29.292628,12.4333333 28.9796667,12.4333333 L28.9796667,12.4333333 Z M19.4596667,1.6666667 C19.7428994,1.5337173 20.0802848,1.6554804 20.2133333,1.9386667 L20.9613333,3.548 L15.8046667,4.9306667 C15.6082897,4.9833038 15.4549114,5.1367084 15.402308,5.3330944 C15.3497046,5.5294804 15.4058678,5.7390122 15.5496414,5.8827611 C15.693415,6.02651 15.9029563,6.0826371 16.0993333,6.03 L22.9956667,4.1826667 C23.2958749,4.1030978 23.6041935,4.2800019 23.687,4.5793333 L24.2536667,6.744 L8.574,6.744 L19.4596667,1.6666667 Z M27.2796667,21.5 L16.9493333,21.5 C16.636372,21.5 16.3826667,21.7537053 16.3826667,22.0666667 C16.3826667,22.379628 16.636372,22.6333333 16.9493333,22.6333333 L27.2796667,22.6333333 L27.2796667,23.574 C27.2796667,23.8869614 27.0259614,24.1406667 26.713,24.1406667 L9.067,24.1406667 C9.6098855,23.7285865 10.069488,23.2170623 10.4213333,22.6333333 L11.9796667,22.6333333 C12.292628,22.6333333 12.5463333,22.379628 12.5463333,22.0666667 C12.5463333,21.7537053 12.292628,21.5 11.9796667,21.5 L10.9483333,21.5 C11.4951696,19.8324074 11.2093019,18.0037343 10.1796183,16.5825916 C9.1499348,15.1614488 7.5012963,14.3201661 5.7463333,14.3203333 C5.3653782,14.3191844 4.985408,14.3590813 4.613,14.4393333 L4.613,8.4666667 C4.613,8.1537053 4.8667053,7.9 5.1796667,7.9 L26.713,7.9 C27.0259614,7.9 27.2796667,8.1537053 27.2796667,8.4666667 L27.2796667,12.4333333 L21.4203333,12.4333333 C20.2748948,12.4333333 19.3463333,13.3618948 19.3463333,14.5073333 L19.3463333,17.5333333 C19.3463333,18.6787719 20.2748948,19.6073333 21.4203333,19.6073333 L27.2796667,19.6073333 L27.2796667,21.5 Z M28.413,18.474 L21.4203333,18.474 C20.9008175,18.474 20.4796667,18.0528492 20.4796667,17.5333333 L20.4796667,14.5243333 C20.4751042,14.2719207 20.5721921,14.0282678 20.7490983,13.8481646 C20.9260044,13.6680613 21.1678795,13.5666667 21.4203333,13.5666667 L28.413,13.5666667 L28.413,18.474 Z M14.6203333,21.5 C14.9332947,21.5 15.187,21.7537053 15.187,22.0666667 C15.187,22.379628 14.9332947,22.6333333 14.6203333,22.6333333 L13.8666667,22.6333333 C13.5537053,22.6333333 13.3,22.379628 13.3,22.0666667 C13.3,21.7537053 13.5537053,21.5 13.8666667,21.5 L14.6203333,21.5 Z" id="Shape" fill="#0CBEAB"></path>
            <path d="M6.05233333,22.3160003 L6.11466667,22.491667 C6.19578511,22.7160372 6.40874962,22.8655655 6.64733333,22.865667 C6.71304107,22.8655897 6.77823473,22.8540849 6.84,22.831667 C7.13409237,22.7251601 7.28627158,22.4005111 7.18,22.1063337 L7.10066667,21.879667 C7.32768825,21.7270425 7.51122402,21.5181241 7.63333333,21.2733337 C7.79787092,20.9167573 7.81617887,20.5099139 7.68433333,20.1400003 C7.546463,19.7596519 7.26253081,19.4500354 6.89551386,19.2798246 C6.52849692,19.1096138 6.10873524,19.0928796 5.72933333,19.2333337 L5.36666667,19.346667 C5.20001061,19.3570888 5.04610878,19.2574001 4.98747763,19.1010504 C4.92884647,18.9447006 4.9792512,18.768397 5.11166667,18.666667 L5.82566667,18.4060003 C5.89031316,18.6018817 6.05629353,18.7471628 6.25901028,18.785302 C6.46172703,18.8234412 6.66915637,18.7484136 6.80056938,18.5894189 C6.93198239,18.4304243 6.96661935,18.2125795 6.891,18.020667 C6.79296382,17.7414212 6.58958405,17.511602 6.32433333,17.3803337 C6.05204532,17.2525934 5.74014805,17.2383236 5.45733333,17.340667 L5.36666667,17.136667 C5.30202017,16.9407856 5.1360398,16.7955046 4.93332305,16.7573653 C4.7306063,16.7192261 4.52317697,16.7942538 4.39176396,16.9532484 C4.26035095,17.1122431 4.22571398,17.3300879 4.30133333,17.5220003 L4.38633333,17.7543337 C3.76109578,18.1846339 3.55332796,19.0127045 3.90136445,19.687205 C4.24940094,20.3617054 5.0446682,20.6722185 5.75766667,20.4120003 L6.109,20.281667 C6.2036767,20.2469949 6.3082566,20.2514059 6.39967744,20.2939272 C6.49109827,20.3364485 6.56185111,20.4135876 6.59633333,20.5083337 C6.63570372,20.6006444 6.63570372,20.7050229 6.59633333,20.7973337 C6.5567682,20.8882685 6.48061495,20.9582472 6.38666667,20.9900003 L5.67266667,21.250667 C5.61544046,21.0448825 5.44736384,20.8887589 5.237924,20.8468416 C5.02848415,20.8049244 4.81326761,20.8843359 4.68125042,21.0522452 C4.54923323,21.2201546 4.52284682,21.448032 4.613,21.641667 C4.77640298,22.0862286 5.19902901,22.3822928 5.67266667,22.3840003 C5.80598509,22.3845077 5.93834741,22.3614882 6.06366667,22.3160003 L6.05233333,22.3160003 Z" id="Path" fill="#FFFFFF"></path>
        </g>
    </g>
</svg>