<?xml version="1.0" encoding="UTF-8"?>
<svg width="36px" height="27px" viewBox="0 0 36 27" version="1.1" xmlns="http://www.w3.org/2000/svg" xmlns:xlink="http://www.w3.org/1999/xlink">
    <!-- Generator: Sketch 55.1 (78136) - https://sketchapp.com -->
    <title>green_relationships</title>
    <desc>Created with Sketch.</desc>
    <g id="Page-1" stroke="none" stroke-width="1" fill="none" fill-rule="evenodd">
        <g id="green_relationships" fill="#0CBEAB" fill-rule="nonzero">
            <path d="M35.3450476,8.3517143 L27.5650476,0.5717143 C26.7873606,-0.1905714 25.5427347,-0.1905714 24.7650476,0.5717143 L23.678381,1.658381 C22.9542157,2.3999519 22.9165978,3.5718949 23.5917143,4.358381 C22.6214039,5.1732012 21.3558169,5.5475637 20.098381,5.3917143 C18.9342668,5.2521626 17.7549985,5.4634094 16.7117143,5.998381 L16.6650476,5.998381 L13.998381,5.658381 C13.7000749,5.6218338 13.4228648,5.485578 13.2117143,5.2717143 L12.3250476,4.3850476 C13.012018,3.5999049 12.9800909,2.4186045 12.2517143,1.6717143 L11.1650476,0.5850476 C10.3873606,-0.1772381 9.1427347,-0.1772381 8.3650476,0.5850476 L0.57171431,8.3517143 C-0.19057144,9.1294013 -0.19057144,10.3740273 0.57171431,11.1517143 L1.65838098,12.238381 C2.40527112,12.9667576 3.58657156,12.9986846 4.3717143,12.3117143 L6.078381,14.0117143 C6.3380823,14.2783067 6.5261361,14.6062541 6.6250476,14.9650476 C6.9768497,16.2698941 7.6667401,17.4588052 8.6250476,18.4117143 C8.2599203,19.0976542 8.2812522,19.9248287 8.6812501,20.5910367 C9.081248,21.2572448 9.8013151,21.6648919 10.578381,21.6650476 C10.5748059,22.254917 10.8075499,22.8216622 11.2246582,23.2387705 C11.6417664,23.6558787 12.2085117,23.8886227 12.798381,23.8850476 C12.8047066,24.4768285 13.0442762,25.0422128 13.4650476,25.458381 C14.1537071,26.1487256 15.2146278,26.3033867 16.0717143,25.838381 L16.1917143,25.958381 C16.7239801,26.4947224 17.4936686,26.7214228 18.2316795,26.5592226 C18.9696904,26.3970224 19.5733911,25.8684782 19.8317143,25.158381 L20.1050476,25.4317143 C20.520523,25.8498234 21.0856115,26.0849373 21.6750476,26.0849373 C22.2644838,26.0849373 22.8295723,25.8498234 23.2450476,25.4317143 C23.465414,25.2050753 23.6317715,24.9316109 23.7317143,24.6317143 L24.058381,24.958381 C24.925468,25.825468 26.3312939,25.825468 27.198381,24.958381 C28.065468,24.0912939 28.065468,22.685468 27.198381,21.818381 L26.8717143,21.4917143 C27.1710916,21.3850334 27.44235,21.2117927 27.6650476,20.9850476 C28.0885311,20.5734667 28.3287667,20.0089133 28.3317143,19.418381 C28.3300875,19.0672551 28.243148,18.7217851 28.078381,18.4117143 L28.2050476,18.278381 C29.0713322,17.4206141 29.6590956,16.321752 29.8917143,15.1250476 C30.0741598,14.1783559 30.5390019,13.3091011 31.2250476,12.6317143 L31.5650476,12.2917143 C32.3501904,12.9786846 33.5314908,12.9467576 34.278381,12.218381 L35.3650476,11.1317143 C36.1088051,10.3511411 36.0999588,9.1215057 35.3450476,8.3517143 L35.3450476,8.3517143 Z M9.958381,20.1117143 C9.7775063,19.9370883 9.6753498,19.6964635 9.6753498,19.4450476 C9.6753498,19.1936318 9.7775063,18.953007 9.958381,18.778381 C10.3190328,18.4234425 10.8977292,18.4234425 11.258381,18.778381 C11.496558,19.0106036 11.5927534,19.3522521 11.5107313,19.6746308 C11.4287091,19.9970095 11.1809305,20.2511414 10.8607313,20.3412975 C10.540532,20.4314536 10.196558,20.3439369 9.958381,20.1117143 L9.958381,20.1117143 Z M12.178381,22.3317143 C11.9110259,22.0668146 11.8319812,21.6657835 11.9788197,21.3192448 C12.1256581,20.9727061 12.4687641,20.7505524 12.8450476,20.758381 C13.0946408,20.750938 13.3361075,20.8475246 13.5117143,21.0250476 C13.690884,21.2005973 13.7918504,21.4408768 13.7918504,21.6917143 C13.7918504,21.9425518 13.690884,22.1828313 13.5117143,22.358381 C13.3305,22.5429474 13.0812405,22.6446867 12.8226328,22.6396407 C12.5640251,22.6345947 12.3189242,22.5232093 12.1450476,22.3317143 L12.178381,22.3317143 Z M14.398381,24.5517143 C14.2157618,24.3780436 14.1123806,24.1370621 14.1123806,23.8850476 C14.1123806,23.6330332 14.2157618,23.3920517 14.398381,23.218381 C14.5765618,23.0447777 14.8162938,22.948885 15.0650476,22.9517143 C15.4784601,22.9603153 15.835342,23.2436754 15.9374314,23.6443768 C16.0395207,24.0450783 15.8617318,24.4646599 15.5028336,24.6700276 C15.1439353,24.8753953 14.6921168,24.8160857 14.398381,24.5250476 L14.398381,24.5517143 Z M26.7850476,20.0917143 C26.4145134,20.4542001 25.8222485,20.4542001 25.4517143,20.0917143 L18.6850476,13.298381 C18.5385937,13.0673508 18.2658746,12.9492265 17.997172,13.0004378 C17.7284694,13.0516491 17.5183157,13.2618027 17.4671045,13.5305053 C17.4158932,13.7992079 17.5340175,14.0719271 17.7650476,14.218381 L26.278381,22.758381 C26.4556928,22.9346329 26.5542647,23.1750522 26.5517143,23.4250476 C26.5566055,23.6754862 26.457671,23.91679 26.278381,24.0917143 C25.9177292,24.4466528 25.3390328,24.4466528 24.978381,24.0917143 L16.4650476,15.5450476 C16.2015078,15.3779853 15.8573462,15.4160684 15.6367073,15.6367073 C15.4160684,15.8573462 15.3779853,16.2015078 15.5450476,16.4650476 L22.3117143,23.2250476 C22.6799041,23.5932375 22.6799041,24.1901911 22.3117143,24.558381 C21.9435245,24.9265708 21.3465708,24.9265708 20.978381,24.558381 L14.2450476,17.7650476 C13.9815078,17.5979853 13.6373462,17.6360684 13.4167073,17.8567073 C13.1960684,18.0773462 13.1579853,18.4215078 13.3250476,18.6850476 L18.3917143,23.7517143 C18.6298914,23.9898914 18.7229101,24.337042 18.6357313,24.6623979 C18.5485524,24.9877538 18.2944205,25.2418857 17.9690646,25.3290646 C17.6437087,25.4162434 17.296558,25.3232247 17.058381,25.0850476 L16.938381,24.9650476 C17.3087186,24.2804351 17.2897391,23.4510924 16.8884709,22.784138 C16.4872026,22.1171836 15.7633807,21.7119042 14.9850476,21.718381 C14.9924144,21.1291888 14.7602289,20.5622577 14.3416935,20.1474929 C13.9231581,19.7327281 13.354149,19.5056826 12.7650476,19.518381 C12.7843108,18.7333881 12.3849726,17.9972943 11.7164143,17.5854514 C11.0478559,17.1736085 10.2108059,17.1480669 9.518381,17.518381 C8.726292,16.7179418 8.1604255,15.7219247 7.878381,14.6317143 C7.7265137,14.0499942 7.4201414,13.5201774 6.9917143,13.098381 L5.2917143,11.4050476 L11.398381,5.298381 L12.278381,6.178381 C12.6948018,6.5921544 13.2361216,6.8569559 13.818381,6.9317143 L15.1917143,7.1050476 L11.9117143,10.3850476 C11.2428704,11.0082829 10.9675504,11.9468995 11.1937625,12.8326773 C11.4199746,13.7184552 12.1116401,14.4101207 12.997418,14.6363328 C13.8831958,14.8625449 14.8218124,14.5872249 15.4450476,13.918381 L17.6517143,11.7117143 C18.0521721,11.3198996 18.6088513,11.1310701 19.1650476,11.198381 L26.7517143,18.7850476 C26.9272312,18.9619783 27.0234583,19.202546 27.0185722,19.4517143 C27.0156557,19.6915168 26.9200693,19.9209242 26.7517143,20.0917143 L26.7850476,20.0917143 Z M28.6250476,14.8917143 C28.4382974,15.8368741 27.9740957,16.7049313 27.2917143,17.3850476 L27.2450476,17.4317143 L22.0917143,12.2917143 C22.7454731,12.4612567 23.4165309,12.5552048 24.0917143,12.5717143 C24.2664176,12.5849537 24.4385667,12.5236585 24.5655897,12.4029867 C24.6926127,12.2823148 24.7626498,12.1135332 24.758381,11.938381 C24.758381,11.5701911 24.4599041,11.2717143 24.0917143,11.2717143 C22.8276266,11.2377404 21.590397,10.8992746 20.4850476,10.2850476 C19.2542101,9.591777 17.7133035,9.7956006 16.7050476,10.7850476 L14.498381,12.9917143 C14.2136405,13.3649858 13.7373743,13.5379271 13.2794715,13.4343235 C12.8215686,13.33072 12.466137,12.9696014 12.3698143,12.5101119 C12.2734916,12.0506223 12.4539705,11.577161 12.8317143,11.298381 L16.1650476,7.9650476 C17.1644353,6.9757799 18.5633687,6.5012735 19.958381,6.678381 C21.5986706,6.8799168 23.2477192,6.3786641 24.498381,5.298381 L30.6250476,11.4050476 L30.2917143,11.7317143 C29.4332434,12.5951109 28.8527882,13.695654 28.6250476,14.8917143 Z" id="Shape"></path>
        </g>
    </g>
</svg>