<?xml version="1.0" encoding="UTF-8"?>
<svg width="32px" height="32px" viewBox="0 0 32 32" version="1.1" xmlns="http://www.w3.org/2000/svg" xmlns:xlink="http://www.w3.org/1999/xlink">
    <!-- Generator: Sketch 55.1 (78136) - https://sketchapp.com -->
    <title>favicon</title>
    <desc>Created with Sketch.</desc>
    <g id="Page-1" stroke="none" stroke-width="1" fill="none" fill-rule="evenodd">
        <g id="logo-dark" fill="#1B2C48">
            <path d="M23.2274775,21.5255901 C28.0264191,19.4351677 30.9881423,15.2181981 30.9881423,10.4328648 C30.9881423,7.59104635 29.9322695,4.98765165 27.9789049,3.09711987 C25.8988356,1.07172215 23.0031045,0 19.6031943,0 L6.30975621,0 C5.63214272,-0.0034625805 5.06173269,0.461788524 4.98991527,1.07653878 L3.93404251,10.1872161 C4.69036511,10.2071847 5.44731857,10.1894974 6.20152926,10.134233 C7.6727304,10.0192483 9.13010094,9.78716636 10.5570044,9.44063667 C11.0374265,9.32262895 11.5046502,9.18535467 11.9692342,9.04085543 L12.4338182,4.99487661 C12.4459486,4.8928658 12.5174113,4.80474315 12.6207846,4.76432333 C12.724158,4.72390351 12.8433859,4.7374645 12.9327181,4.79980262 L21.4958461,10.7892963 C21.5758934,10.8449424 21.621541,10.9324444 21.6183976,11.0242149 C21.6152544,11.1159855 21.5637073,11.2007163 21.4800081,11.2516939 L11.531047,17.2411875 C11.4308488,17.3009045 11.3020091,17.3029621 11.1995814,17.2464813 C11.0971537,17.1900004 11.0392547,17.0849709 11.0506249,16.9762722 L11.4096216,13.8695385 C9.67682896,14.0255269 7.93242117,14.0432552 6.1962499,13.9225215 C4.46960383,13.7888258 2.76199349,13.4975687 1.09902416,13.0531177 C0.893128964,13.0001347 0.689873453,12.942335 0.489257635,12.8845353 C0.334700884,12.8393326 0.165815732,12.8900179 0.0708542526,13.0101054 C-0.0241072144,13.1301927 -0.0235689065,13.2923971 0.07218789,13.4119575 L3.05238875,17.0774218 L1.63751925,30.0823536 C1.59849472,30.4227961 1.72012225,30.7623028 1.97199574,31.0159991 C2.22386923,31.2696955 2.58218277,31.4136034 2.95736021,31.4117647 L8.81745401,31.4117647 C9.49597723,31.4151027 10.0667375,30.9485245 10.137295,30.332819 L10.9291995,23.3221973 C10.9564104,23.0751512 11.1849963,22.8874554 11.4571359,22.8886997 L13.7826957,22.8886997 C13.9786139,22.8869143 14.159503,22.9842663 14.252559,23.1415733 L18.7400183,30.77595 C18.9700748,31.1658568 19.4161268,31.4091059 19.9014783,31.4093384 L26.7857687,31.4093384 C27.2487542,31.4094531 27.677953,31.1882278 27.9167925,30.8263661 C28.1556321,30.4645043 28.1691853,30.0149232 27.9525081,29.6416309 L23.2274775,21.5255901 Z" id="Path"></path>
        </g>
    </g>
</svg>